<svg width="20" height="20" viewBox="0 0 20 20" fill="none" xmlns="http://www.w3.org/2000/svg">
<path d="M18.3332 2.44727V6.0931C18.3332 6.3003 18.2509 6.49901 18.1044 6.64552C17.9578 6.79204 17.7591 6.87435 17.5519 6.87435C17.3447 6.87435 17.146 6.79204 16.9995 6.64552C16.853 6.49901 16.7707 6.3003 16.7707 6.0931V4.33372L12.9092 8.19518C12.8367 8.26796 12.7505 8.32568 12.6556 8.36501C12.5606 8.40434 12.4589 8.42451 12.3561 8.42435C12.2536 8.42451 12.152 8.40444 12.0573 8.36529C11.9626 8.32615 11.8765 8.26869 11.804 8.19622C11.7314 8.12367 11.6738 8.03753 11.6345 7.94271C11.5952 7.84789 11.575 7.74626 11.575 7.64362C11.575 7.54099 11.5952 7.43935 11.6345 7.34453C11.6738 7.24972 11.7314 7.16357 11.804 7.09102L15.6655 3.22852H13.9051C13.6979 3.22852 13.4992 3.1462 13.3526 2.99969C13.2061 2.85318 13.1238 2.65447 13.1238 2.44727C13.1238 2.24007 13.2061 2.04136 13.3526 1.89484C13.4992 1.74833 13.6979 1.66602 13.9051 1.66602H17.5509C17.6536 1.66588 17.7553 1.68598 17.8502 1.72518C17.9451 1.76438 18.0313 1.82191 18.104 1.89447C18.1766 1.96703 18.2343 2.0532 18.2736 2.14805C18.3129 2.2429 18.3332 2.34458 18.3332 2.44727ZM7.12171 11.7702L3.229 15.6629V13.9056C3.229 13.6984 3.1467 13.4997 3.00019 13.3532C2.85367 13.2067 2.65495 13.1243 2.44775 13.1243C2.24055 13.1243 2.04183 13.2067 1.89532 13.3532C1.74881 13.4997 1.6665 13.6984 1.6665 13.9056V17.5514C1.6665 17.7586 1.74881 17.9573 1.89532 18.1039C2.04183 18.2504 2.24055 18.3327 2.44775 18.3327H6.09359C6.30079 18.3327 6.49951 18.2504 6.64602 18.1039C6.79253 17.9573 6.87484 17.7586 6.87484 17.5514C6.87484 17.3442 6.79253 17.1455 6.64602 16.999C6.49951 16.8525 6.30079 16.7702 6.09359 16.7702H4.33419L8.22689 12.8775C8.3732 12.731 8.45539 12.5324 8.45539 12.3254C8.45539 12.1184 8.3732 11.9198 8.22689 11.7733C8.15455 11.7005 8.06856 11.6427 7.97385 11.6031C7.87914 11.5635 7.77761 11.543 7.67497 11.5427C7.57233 11.5425 7.47064 11.5624 7.37571 11.6014C7.28078 11.6404 7.19447 11.6978 7.12171 11.7702ZM2.44775 10.4973C2.65495 10.4973 2.85367 10.415 3.00019 10.2684C3.1467 10.1219 3.229 9.92321 3.229 9.71601V3.95768C3.229 3.86192 3.24786 3.76711 3.28451 3.67864C3.32115 3.59018 3.37485 3.50979 3.44256 3.44208C3.51027 3.37437 3.59067 3.32066 3.67914 3.28402C3.7676 3.24738 3.86243 3.22852 3.95818 3.22852H9.74152C9.94872 3.22852 10.1474 3.1462 10.294 2.99969C10.4405 2.85318 10.5228 2.65447 10.5228 2.44727C10.5228 2.24007 10.4405 2.04136 10.294 1.89484C10.1474 1.74833 9.94872 1.66602 9.74152 1.66602H3.95818C3.3504 1.66602 2.76747 1.90746 2.3377 2.33723C1.90793 2.767 1.6665 3.34989 1.6665 3.95768V9.72019C1.66706 9.92702 1.74963 10.1252 1.89609 10.2713C2.04254 10.4173 2.24091 10.4994 2.44775 10.4994V10.4973ZM17.5519 9.49726C17.3447 9.49726 17.146 9.57958 16.9995 9.72609C16.853 9.8726 16.7707 10.0713 16.7707 10.2785V16.041C16.7707 16.2344 16.6939 16.4199 16.5571 16.5566C16.4204 16.6934 16.2349 16.7702 16.0415 16.7702H10.2582C10.051 16.7702 9.85224 16.8525 9.70572 16.999C9.55921 17.1455 9.47691 17.3442 9.47691 17.5514C9.47691 17.7586 9.55921 17.9573 9.70572 18.1039C9.85224 18.2504 10.051 18.3327 10.2582 18.3327H16.0415C16.3424 18.3327 16.6405 18.2734 16.9185 18.1582C17.1965 18.0431 17.4492 17.8743 17.662 17.6615C17.8748 17.4487 18.0435 17.196 18.1587 16.918C18.2739 16.64 18.3332 16.342 18.3332 16.041V10.2806C18.3332 10.0734 18.2509 9.87468 18.1044 9.72817C17.9578 9.58166 17.7591 9.49935 17.5519 9.49935V9.49726Z" fill="#8D8D99"/>
</svg>
