<svg width="20" height="20" viewBox="0 0 20 20" fill="none" xmlns="http://www.w3.org/2000/svg">
<path d="M17.2665 16.2501H2.73322C2.59478 16.2518 2.45733 16.2261 2.3288 16.1747C2.20027 16.1232 2.08313 16.047 1.98408 15.9502C1.88503 15.8535 1.806 15.7382 1.75151 15.6109C1.69702 15.4837 1.66814 15.3469 1.6665 15.2085C1.66814 15.07 1.69702 14.9333 1.75151 14.806C1.806 14.6787 1.88503 14.5634 1.98408 14.4667C2.08313 14.37 2.20027 14.2937 2.3288 14.2422C2.45733 14.1908 2.59478 14.1651 2.73322 14.1668H17.2665C17.405 14.1651 17.5423 14.1908 17.6709 14.2422C17.7994 14.2937 17.9165 14.37 18.0156 14.4667C18.1146 14.5634 18.1937 14.6787 18.2482 14.806C18.3027 14.9333 18.3315 15.07 18.3332 15.2085C18.3315 15.3469 18.3027 15.4837 18.2482 15.6109C18.1937 15.7382 18.1146 15.8535 18.0156 15.9502C17.9165 16.047 17.7994 16.1232 17.6709 16.1747C17.5423 16.2261 17.405 16.2518 17.2665 16.2501ZM14.7769 13.1251H5.22276C4.62874 13.1315 4.05643 12.9021 3.63133 12.4871C3.20622 12.0722 2.96301 11.5056 2.95505 10.9116V5.96367C2.96301 5.36967 3.20622 4.80307 3.63133 4.38812C4.05643 3.97317 4.62874 3.74373 5.22276 3.75013H14.7769C15.3709 3.74373 15.9432 3.97317 16.3683 4.38812C16.7935 4.80307 17.0367 5.36967 17.0446 5.96367V10.9116C17.0367 11.5056 16.7935 12.0722 16.3683 12.4871C15.9432 12.9021 15.3709 13.1315 14.7769 13.1251ZM5.22276 5.05221C5.10133 5.05042 4.98078 5.07259 4.86792 5.11744C4.75507 5.16229 4.65217 5.22895 4.5651 5.3136C4.47803 5.39825 4.40845 5.49924 4.36044 5.61078C4.31243 5.72233 4.28692 5.84224 4.28529 5.96367V10.9116C4.28692 11.033 4.31243 11.1529 4.36044 11.2645C4.40845 11.376 4.47803 11.477 4.5651 11.5617C4.65217 11.6463 4.75507 11.713 4.86792 11.7578C4.98078 11.8027 5.10133 11.8248 5.22276 11.823H14.7769C14.8983 11.8248 15.019 11.8027 15.1318 11.7578C15.2447 11.713 15.3476 11.6463 15.4346 11.5617C15.5217 11.477 15.5912 11.376 15.6392 11.2645C15.6872 11.1529 15.7128 11.033 15.7144 10.9116V5.96367C15.7128 5.84224 15.6872 5.72233 15.6392 5.61078C15.5912 5.49924 15.5217 5.39825 15.4346 5.3136C15.3476 5.22895 15.2447 5.16229 15.1318 5.11744C15.019 5.07259 14.8983 5.05042 14.7769 5.05221H5.22276Z" fill="#8D8D99"/>
</svg>
